<svg xmlns="http://www.w3.org/2000/svg" version="1.1" xmlns:xlink="http://www.w3.org/1999/xlink" width="512" height="512" x="0" y="0" viewBox="0 0 512 512" style="enable-background:new 0 0 512 512" xml:space="preserve" class=""><g transform="matrix(6.123233995736766e-17,-1,1,6.123233995736766e-17,-0.0037536621094034217,511.9775085449219)"><path d="M75 75C-25 175-25 337.05 75 437s262.07 100 362 0 100-262 0-362S175-25 75 75zm56.57 56.57A176.15 176.15 0 0 1 349 106.48L106.48 349a176.15 176.15 0 0 1 25.07-217.4zm248.9 248.9a176.15 176.15 0 0 1-217.4 25.07l242.45-242.49a176.15 176.15 0 0 1-25.07 217.4z" data-name="Layer 2" fill="#fff" opacity="1" data-original="#000000" class=""></path></g></svg>