<?xml version="1.0" standalone="no"?>
<!DOCTYPE svg PUBLIC "-//W3C//DTD SVG 20010904//EN"
 "http://www.w3.org/TR/2001/REC-SVG-20010904/DTD/svg10.dtd">
<svg version="1.0" fill="#fff" stroke="black" stroke-width="5px" xmlns="http://www.w3.org/2000/svg"
 width="1280.000000pt" height="1280.000000pt" viewBox="0 0 1280.000000 1280.000000"
 preserveAspectRatio="xMidYMid meet">
<metadata>
Created by potrace 1.15, written by Peter Selinger 2001-2017
</metadata>
<g transform="translate(0.000000,1280.000000) scale(0.100000,-0.100000)"
fill="#fff" stroke="#fff" stroke-width="45rem">
<path d="M6100 12794 c-1196 -69 -2268 -421 -3230 -1059 -1532 -1015 -2544
-2616 -2805 -4436 -48 -336 -58 -497 -58 -899 0 -402 10 -563 58 -899 261
-1820 1273 -3421 2805 -4436 894 -593 1884 -938 2985 -1042 251 -24 839 -24
1090 0 1101 104 2091 449 2985 1042 1532 1015 2544 2616 2805 4436 48 336 58
497 58 899 0 402 -10 563 -58 899 -261 1820 -1273 3421 -2805 4436 -890 591
-1895 942 -2975 1040 -161 15 -713 27 -855 19z m812 -1318 c335 -38 612 -92
906 -177 1056 -306 1980 -941 2648 -1820 516 -680 852 -1479 978 -2330 44
-295 51 -399 51 -749 0 -350 -7 -454 -51 -749 -110 -738 -372 -1426 -781
-2050 -95 -146 -299 -421 -311 -421 -9 0 -7172 7163 -7172 7172 0 10 260 204
380 285 499 333 1040 571 1625 717 280 69 534 108 925 140 109 9 673 -4 802
-18z m-875 -5438 c1971 -1971 3583 -3586 3583 -3590 0 -10 -260 -204 -380
-285 -636 -424 -1338 -695 -2091 -807 -295 -44 -399 -51 -749 -51 -350 0 -454
7 -749 51 -1324 197 -2505 896 -3317 1965 -516 680 -852 1479 -978 2330 -44
295 -51 399 -51 749 0 350 7 454 51 749 110 738 372 1426 781 2050 95 146 299
421 311 421 4 0 1619 -1612 3589 -3582z"/>
</g>
</svg>
